# File created by Blade
# Date/Time:  Tue Jan 27 20:12:12 2015
#---------------------------------------------------------
:version 1.10
:name HOM
:units
  mass 1.0
  length 1.000000
  angle deg
:documentation
     Acclaim Skeleton File
:root
   axis xyz
   order TX TY TZ RX RY RZ
   position 0.000000 0.000000 0.000000
   orientation 0 0 0
:bonedata
   begin
      id 1
      name Spine_dum
      direction 0.000000 1.000000 0.000000
      length 6.116652
      axis 0.0 0.0 0.0 xyz
   end
   begin
      id 2
      name LeftUpLeg_dum
      direction 1.000000 0.000000 0.000000
      length 4.711765
      axis 0.0 0.0 0.0 xyz
   end
   begin
      id 3
      name RightUpLeg_dum
      direction -1.000000 0.000000 0.000000
      length 4.711765
      axis 0.0 0.0 0.0 xyz
   end
   begin
      id 4
      name Spine
      direction 0.000000 1.000000 0.000000
      length 0.000000
      axis 0.0 0.0 0.0 xyz
      dof rx ry rz
   end
   begin
      id 5
      name Spine_dum1
      direction 0.000000 1.000000 0.000000
      length 15.225563
      axis 0.0 0.0 0.0 xyz
   end
   begin
      id 6
      name Spine_dum2
      direction 0.000000 1.000000 0.000000
      length 8.977654
      axis 0.0 0.0 0.0 xyz
   end
   begin
      id 7
      name Spine_dum3
      direction 0.000000 1.000000 0.000000
      length 8.977654
      axis 0.0 0.0 0.0 xyz
   end
   begin
      id 8
      name Head
      direction 0.000000 1.000000 0.000000
      length 4.527550
      axis 0.0 0.0 0.0 xyz
      dof rx ry rz
   end
   begin
      id 9
      name LeftShoulder
      direction 1.000000 0.000000 0.000000
      length 7.110130
      axis 0.0 0.0 -90.0 xyz
      dof rx ry rz
   end
   begin
      id 10
      name LeftArm
      direction 1.000000 0.000000 0.000000
      length 10.398341
      axis 0.0 0.0 -90.0 xyz
      dof rx ry rz
   end
   begin
      id 11
      name LeftForeArm
      direction 1.000000 0.000000 0.000000
      length 8.888997
      axis 0.0 0.0 -90.0 xyz
      dof ry rz rx
   end
   begin
      id 12
      name LeftHand
      direction 0.000000 0.000000 0.000000
      length 0.000000
      axis 0.0 0.0 -90.0 xyz
      dof rx ry rz
   end
   begin
      id 13
      name LeftHand_dum1
      direction 0.000000 0.000000 0.000000
      length 0.000000
      axis 0.0 0.0 -90.0 xyz
   end
   begin
      id 14
      name LeftHand_dum2
      direction 1.000000 0.000000 0.000000
      length 3.937000
      axis 0.0 0.0 -90.0 xyz
   end
   begin
      id 15
      name LeftHandThumb1
      direction 0.000000 0.000000 1.000000
      length 3.937000
      axis 0.0 0.0 -90.0 xyz
      dof rx rz ry
   end
   begin
      id 16
      name RightShoulder
      direction -1.000000 0.000000 0.000000
      length 7.110130
      axis 0.0 0.0 90.0 xyz
      dof rx ry rz
   end
   begin
      id 17
      name RightArm
      direction -1.000000 0.000000 0.000000
      length 10.398341
      axis 0.0 0.0 90.0 xyz
      dof rx ry rz
   end
   begin
      id 18
      name RightForeArm
      direction -1.000000 0.000000 0.000000
      length 8.888997
      axis 0.0 0.0 90.0 xyz
      dof ry rz rx
   end
   begin
      id 19
      name RightHand
      direction 0.000000 0.000000 0.000000
      length 0.000000
      axis 0.0 0.0 90.0 xyz
      dof rx ry rz
   end
   begin
      id 20
      name RightHand_dum1
      direction 0.000000 0.000000 0.000000
      length 0.000000
      axis 0.0 0.0 90.0 xyz
   end
   begin
      id 21
      name RightHand_dum2
      direction -1.000000 0.000000 0.000000
      length 3.937000
      axis 0.0 0.0 90.0 xyz
   end
   begin
      id 22
      name RightHandThumb1
      direction 0.000000 0.000000 1.000000
      length 3.937000
      axis 0.0 0.0 90.0 xyz
      dof rx rz ry
   end
   begin
      id 23
      name LeftUpLeg
      direction 0.000000 -1.000000 0.000000
      length 15.510451
      axis 0.0 0.0 0.0 xyz
      dof rx ry rz
   end
   begin
      id 24
      name LeftLeg
      direction 0.000000 -1.000000 0.000000
      length 14.858061
      axis 0.0 0.0 0.0 xyz
      dof rx ry rz
   end
   begin
      id 25
      name LeftFoot
      direction 0.000000 -0.258819 0.965926
      length 5.128852
      axis 15.0 0.0 0.0 xyz
      dof rx ry rz
   end
   begin
      id 26
      name LeftToeBase
      direction 0.000000 0.000000 1.000000
      length 2.952750
      axis 0.0 0.0 0.0 xyz
      dof rx ry rz
   end
   begin
      id 27
      name RightUpLeg
      direction 0.000000 -1.000000 0.000000
      length 15.510451
      axis 0.0 0.0 0.0 xyz
      dof rx ry rz
   end
   begin
      id 28
      name RightLeg
      direction 0.000000 -1.000000 0.000000
      length 14.858061
      axis 0.0 0.0 0.0 xyz
      dof rx ry rz
   end
   begin
      id 29
      name RightFoot
      direction 0.000000 -0.258819 0.965926
      length 5.128852
      axis 15.0 0.0 0.0 xyz
      dof rx ry rz
   end
   begin
      id 30
      name RightToeBase
      direction 0.000000 0.000000 1.000000
      length 2.952750
      axis 0.0 0.0 0.0 xyz
      dof rx ry rz
   end
:hierarchy
   begin
      root Spine_dum LeftUpLeg_dum RightUpLeg_dum
      Spine_dum Spine
      LeftUpLeg_dum LeftUpLeg
      RightUpLeg_dum RightUpLeg
      Spine Spine_dum1 Spine_dum2 Spine_dum3
      Spine_dum1 Head
      Spine_dum2 LeftShoulder
      Spine_dum3 RightShoulder
      LeftShoulder LeftArm
      LeftArm LeftForeArm
      LeftForeArm LeftHand
      LeftHand LeftHand_dum1 LeftHand_dum2
      LeftHand_dum1 LeftHandThumb1
      RightShoulder RightArm
      RightArm RightForeArm
      RightForeArm RightHand
      RightHand RightHand_dum1 RightHand_dum2
      RightHand_dum1 RightHandThumb1
      LeftUpLeg LeftLeg
      LeftLeg LeftFoot
      LeftFoot LeftToeBase
      RightUpLeg RightLeg
      RightLeg RightFoot
      RightFoot RightToeBase
   end

# File created by Blade
# Date/Time:  Tue Jan 27 20:12:02 2015
# Frame Rate: 120.000 fps
#------------------------------------------------------
:FULLY-SPECIFIED
:DEGREES
337
root 8.308066 31.967970 -3.684220 6.086726 26.512380 6.288828
Spine 3.512820 -9.204151 -5.497346
Head 13.986445 -12.963359 0.583486
LeftShoulder -15.032264 -0.981953 29.358811
LeftArm -13.723449 -34.990853 -73.778297
LeftForeArm -3.500940 -0.000000 95.686017
LeftHand 15.686202 -0.000000 16.847100
LeftHandThumb1 -26.253704 0.000000 33.147579
RightShoulder -25.002678 -25.761838 -22.615947
RightArm 7.303404 -28.397470 88.059194
RightForeArm -24.085061 -0.000000 103.079840
RightHand 17.269025 -0.000000 1.499333
RightHandThumb1 -24.326973 -0.000000 -32.862282
LeftUpLeg 2.365944 -18.267163 -11.912596
LeftLeg -3.721001 -0.000000 0.000000
LeftFoot -7.183916 7.736293 -12.826301
LeftToeBase 22.820952 -0.000000 -0.000000
RightUpLeg -9.739166 18.058165 3.514395
RightLeg 103.366884 -0.000000 -0.000000
RightFoot 9.045786 -11.697119 22.153701
RightToeBase 9.174225 -0.000000 -0.000000
338
root 8.300686 31.965328 -3.677642 6.118550 26.494677 6.337389
Spine 3.494842 -9.062921 -5.594496
Head 13.889851 -13.064656 0.647591
LeftShoulder -15.041603 -1.053548 29.381809
LeftArm -13.775700 -35.048167 -73.624921
LeftForeArm -3.631847 -0.000000 95.633278
LeftHand 15.563519 -0.000000 17.051711
LeftHandThumb1 -26.253704 0.000000 33.147579
RightShoulder -24.944886 -25.582038 -22.708608
RightArm 7.175383 -28.540059 88.210275
RightForeArm -24.079611 -0.000000 103.098067
RightHand 17.267531 -0.000000 1.476501
RightHandThumb1 -24.326973 -0.000000 -32.862282
LeftUpLeg 2.341819 -18.100269 -11.932331
LeftLeg -3.697791 -0.000000 0.000000
LeftFoot -7.194119 7.592066 -12.860061
LeftToeBase 23.030131 -0.000000 -0.000000
RightUpLeg -9.813927 18.189434 3.488413
RightLeg 103.196749 -0.000000 -0.000000
RightFoot 9.093452 -11.542221 22.281873
RightToeBase 8.776372 -0.000000 -0.000000
339
root 8.300426 31.964049 -3.672649 6.133692 26.563879 6.372297
Spine 3.479033 -9.014388 -5.619776
Head 13.818129 -13.159695 0.617453
LeftShoulder -15.044443 -1.066877 29.360290
LeftArm -13.770837 -35.174817 -73.555735
LeftForeArm -3.500712 0.000000 95.550301
LeftHand 15.574973 0.000000 17.208361
LeftHandThumb1 -26.253704 0.000000 33.147579
RightShoulder -24.895368 -25.485079 -22.790389
RightArm 7.148538 -28.670322 88.277365
RightForeArm -24.084578 -0.000000 103.133459
RightHand 17.311484 -0.000000 1.420944
RightHandThumb1 -24.326973 -0.000000 -32.862282
LeftUpLeg 2.329114 -18.060285 -11.952670
LeftLeg -3.648852 -0.000000 0.000000
LeftFoot -7.218996 7.464655 -12.913244
LeftToeBase 23.183650 -0.000000 -0.000000
RightUpLeg -9.832972 18.217987 3.473537
RightLeg 102.935029 -0.000000 -0.000000
RightFoot 9.284152 -11.485840 22.202941
RightToeBase 9.486381 -0.000000 -0.000000
340
root 8.302873 31.961718 -3.667884 6.150065 26.637683 6.409272
Spine 3.466050 -8.994539 -5.633097
Head 13.718202 -13.233613 0.549460
LeftShoulder -15.102081 -1.065631 29.359480
LeftArm -13.763168 -35.293993 -73.547547
LeftForeArm -3.373934 -0.000000 95.477114
LeftHand 15.468026 -0.000000 17.160200
LeftHandThumb1 -26.253704 0.000000 33.147579
RightShoulder -24.837375 -25.407167 -22.870904
RightArm 7.158949 -28.790277 88.324829
RightForeArm -23.991521 -0.000000 103.175620
RightHand 17.358766 0.000000 1.501552
RightHandThumb1 -24.326973 -0.000000 -32.862282
LeftUpLeg 2.319099 -18.036520 -11.981722
LeftLeg -3.597794 -0.000000 0.000000
LeftFoot -7.219486 7.366967 -12.872770
LeftToeBase 23.146863 -0.000000 -0.000000
RightUpLeg -9.857492 18.234915 3.445233
RightLeg 102.726112 -0.000000 -0.000000
RightFoot 9.224290 -11.311496 22.547138
RightToeBase 9.969804 -0.000000 -0.000000
341
root 8.307269 31.959876 -3.661928 6.175650 26.724239 6.439347
Spine 3.433332 -8.991843 -5.618668
Head 13.620787 -13.274974 0.443413
LeftShoulder -15.139736 -1.149939 29.310680
LeftArm -13.858793 -35.399115 -73.406840
LeftForeArm -3.336391 -0.000000 95.434088
LeftHand 15.434362 -0.000000 17.199583
LeftHandThumb1 -26.253704 0.000000 33.147579
RightShoulder -24.831384 -25.464438 -22.876846
RightArm 7.340666 -28.924404 88.250064
RightForeArm -24.053786 -0.000000 103.229981
RightHand 17.335614 -0.000000 1.521279
RightHandThumb1 -24.326973 -0.000000 -32.862282
LeftUpLeg 2.290150 -17.979256 -12.003357
LeftLeg -3.526758 -0.000000 0.000000
LeftFoot -7.220674 7.228307 -12.833753
LeftToeBase 23.116413 -0.000000 -0.000000
RightUpLeg -9.864297 18.178504 3.411899
RightLeg 102.466662 -0.000000 -0.000000
RightFoot 9.448795 -11.314021 22.336358
RightToeBase 8.269554 -0.000000 -0.000000
342
root 8.314457 31.956766 -3.657504 6.191814 26.809488 6.469970
Spine 3.406145 -9.004389 -5.594074
Head 13.541488 -13.303472 0.321231
LeftShoulder -15.185164 -1.131684 29.273734
LeftArm -13.884501 -35.582461 -73.357116
LeftForeArm -3.072814 -0.000000 95.381824
LeftHand 15.284179 0.000000 16.869493
LeftHandThumb1 -26.253704 0.000000 33.147579
RightShoulder -24.752376 -25.403170 -22.967284
RightArm 7.356356 -29.035294 88.273388
RightForeArm -24.024234 -0.000000 103.283395
RightHand 17.311868 0.000000 1.408530
RightHandThumb1 -24.326973 -0.000000 -32.862282
LeftUpLeg 2.294800 -18.035044 -12.036647
LeftLeg -3.484433 -0.000000 0.000000
LeftFoot -7.176810 7.158079 -12.820067
LeftToeBase 22.690374 -0.000000 -0.000000
RightUpLeg -9.859140 18.149529 3.364906
RightLeg 102.236658 -0.000000 -0.000000
RightFoot 9.290711 -11.145427 22.718374
RightToeBase 9.454381 -0.000000 -0.000000
343
root 8.318794 31.954157 -3.651058 6.209603 26.862947 6.499056
Spine 3.367119 -9.007467 -5.589347
Head 13.490063 -13.340025 0.222147
LeftShoulder -15.224494 -1.042778 29.238584
LeftArm -13.861391 -35.738181 -73.337579
LeftForeArm -3.066025 0.000000 95.341135
LeftHand 15.138879 -0.000000 16.986830
LeftHandThumb1 -26.253704 0.000000 33.147579
RightShoulder -24.675180 -25.400009 -23.030110
RightArm 7.469412 -29.140099 88.261765
RightForeArm -23.998581 -0.000000 103.326342
RightHand 17.306617 -0.000000 1.429580
RightHandThumb1 -24.326973 -0.000000 -32.862282
LeftUpLeg 2.311431 -18.035717 -12.062013
LeftLeg -3.497028 -0.000000 0.000000
LeftFoot -7.189465 7.135328 -12.679961
LeftToeBase 22.870042 -0.000000 -0.000000
RightUpLeg -9.848824 18.110784 3.339978
RightLeg 101.981985 -0.000000 -0.000000
RightFoot 9.342010 -11.043222 22.634306
RightToeBase 10.072459 -0.000000 -0.000000
344
root 8.322827 31.951300 -3.642705 6.215121 26.910993 6.524355
Spine 3.335814 -8.977035 -5.583150
Head 13.437743 -13.379864 0.135184
LeftShoulder -15.243521 -1.042468 29.206797
LeftArm -13.938973 -35.872868 -73.223713
LeftForeArm -2.942767 -0.000000 95.310960
LeftHand 15.149506 -0.000000 16.732520
LeftHandThumb1 -26.253704 0.000000 33.147579
RightShoulder -24.629279 -25.382374 -23.079947
RightArm 7.520657 -29.266827 88.268788
RightForeArm -23.966054 -0.000000 103.393561
RightHand 17.221206 -0.000000 1.397412
RightHandThumb1 -24.326973 -0.000000 -32.862282
LeftUpLeg 2.341349 -18.028431 -12.086389
LeftLeg -3.497279 -0.000000 0.000000
LeftFoot -7.201918 7.085481 -12.651089
LeftToeBase 22.855663 -0.000000 -0.000000
RightUpLeg -9.813453 18.080519 3.318803
RightLeg 101.728681 -0.000000 -0.000000
RightFoot 9.269354 -10.943448 22.733687
RightToeBase 9.992434 -0.000000 -0.000000
345
root 8.327389 31.948421 -3.634826 6.235074 26.945829 6.550490
Spine 3.286153 -8.949504 -5.574814
Head 13.384450 -13.412748 0.043150
LeftShoulder -15.287329 -1.029836 29.185286
LeftArm -13.991052 -36.015393 -73.150418
LeftForeArm -2.837164 -0.000000 95.272468
LeftHand 14.913627 -0.000000 16.681690
LeftHandThumb1 -26.253704 0.000000 33.147579
RightShoulder -24.495194 -25.068020 -23.279049
RightArm 7.191906 -29.363145 88.459216
RightForeArm -23.928079 -0.000000 103.439406
RightHand 17.247405 0.000000 1.438833
RightHandThumb1 -24.326973 -0.000000 -32.862282
LeftUpLeg 2.351072 -17.987771 -12.108086
LeftLeg -3.504206 -0.000000 0.000000
LeftFoot -7.232671 7.025075 -12.727587
LeftToeBase 23.060677 -0.000000 -0.000000
RightUpLeg -9.800452 18.039896 3.297811
RightLeg 101.499427 -0.000000 -0.000000
RightFoot 9.124216 -10.894136 22.747338
RightToeBase 9.336597 -0.000000 -0.000000
